# xmcd
#
# Track frame offsets:
#	150
#	5160
#	10160
#	12957
#	15762
#	20807
#	25860
#	28590
#	31317
#	36387
#	41335
#	44117
#	46830
#	51840
#	56845
#	59605
#	62345
#	67327
#	72260
#	74965
#	77662
#	82672
#	87670
#	90402
#	93127
#	98090
#	103072
#	105712
#	108345
#	113292
#	118157
#	120817
#	123427
#	128345
#	133292
#	136010
#	138670
#	143770
#	148845
#	151570
#	154307
#	159347
#	164350
#	167087
#	169775
#	174732
#	179667
#	182377
#	185087
#	190062
#	195020
#	197717
#	200437
#	205437
#	210380
#	213085
#	215760
#	220732
#	225677
#	228282
#
# Disc length: 3074 seconds
#
# Revision: 0
# Processed by: cddbd v1.5.1PL0 Copyright (c) Steve Scherf et al.
# Submitted via: audiograbber 1.82.00
#
DISCID=490c003c
DTITLE=TM Century - MegaMusic - 510-Country
DYEAR=1900
DGENRE=
TTITLE0=8954-Jethro - Full Mix
TTITLE1=8954-Jethro - Rhythm Mix
TTITLE2=8954-Jethro - Full Mix - Edit
TTITLE3=8954-Jethro - Rhythm Mix - Edit
TTITLE4=8955-Ride 'Em Rodeo - Full Mix
TTITLE5=8955-Ride 'Em Rodeo - Rhythm Mix
TTITLE6=8955-Ride 'Em Rodeo - Full Mix - Edit
TTITLE7=8955-Ride 'Em Rodeo - Rhythm Mix - Edit
TTITLE8=8956-State Rodeo - Full Mix
TTITLE9=8956-State Rodeo - Rhythm Mix
TTITLE10=8956-State Rodeo - Full Mix - Edit
TTITLE11=8956-State Rodeo - Rhythm Mix - Edit
TTITLE12=8957-Rockin' Horse - Full Mix
TTITLE13=8957-Rockin' Horse - Rhythm Mix
TTITLE14=8957-Rockin' Horse - Full Mix - Edit
TTITLE15=8957-Rockin' Horse - Rhythm Mix - Edit
TTITLE16=8958-Standing Tall - Full Mix
TTITLE17=8958-Standing Tall - Rhythm Mix
TTITLE18=8958-Standing Tall - Full Mix - Edit
TTITLE19=8958-Standing Tall - Rhythm Mix - Edit
TTITLE20=8959-City Slicker - Full Mix
TTITLE21=8959-City Slicker - Rhythm Mix
TTITLE22=8959-City Slicker - Full Mix - Edit
TTITLE23=8959-City Slicker - Rhythm Mix - Edit
TTITLE24=8960-Cotton Field - Full Mix
TTITLE25=8960-Cotton Field - Rhythm Mix
TTITLE26=8960-Cotton Field - Full Mix - Edit
TTITLE27=8960-Cotton Field - Rhythm Mix - Edit
TTITLE28=8961-Breeze - Full Mix
TTITLE29=8961-Breeze - Rhythm Mix
TTITLE30=8961-Breeze - Full Mix - Edit
TTITLE31=8961-Breeze - Rhythm Mix - Edit
TTITLE32=8962-Shiney New Pickup - Full Mix
TTITLE33=8962-Shiney New Pickup - Rhythm Mix
TTITLE34=8962-Shiney New Pickup - Full Mix - Edit
TTITLE35=8962-Shiney New Pickup - Rhythm Mix - Edit
TTITLE36=8963-Open Road - Full Mix
TTITLE37=8963-Open Road - Rhythm Mix
TTITLE38=8963-Open Road - Full Mix - Edit
TTITLE39=8963-Open Road - Rhythm Mix - Edit
TTITLE40=8964-Reflections - Full Mix
TTITLE41=8964-Reflections - Rhythm Mix
TTITLE42=8964-Reflections - Full Mix - Edit
TTITLE43=8964-Reflections - Rhythm Mix - Edit
TTITLE44=8965-Country Cabin - Full Mix
TTITLE45=8965-Country Cabin - Rhythm Mix
TTITLE46=8965-Country Cabin - Full Mix - Edit
TTITLE47=8965-Country Cabin - Rhythm Mix - Edit
TTITLE48=8966-Forget The Night - Full Mix
TTITLE49=8966-Forget The Night - Rhythm Mix
TTITLE50=8966-Forget The Night - Full Mix - Edit
TTITLE51=8966-Forget The Night - Rhythm Mix - Edit
TTITLE52=8967-One More Dance - Full Mix
TTITLE53=8967-One More Dance - Rhythm Mix
TTITLE54=8967-One More Dance - Full Mix - Edit
TTITLE55=8967-One More Dance - Rhythm Mix - Edit
TTITLE56=8968-Dobro Sunset - Full Mix
TTITLE57=8968-Dobro Sunset - Rhythm Mix
TTITLE58=8968-Dobro Sunset - Full Mix - Edit
TTITLE59=8968-Dobro Sunset - Rhythm Mix - Edit
EXTD=
EXTT0=
EXTT1=
EXTT2=
EXTT3=
EXTT4=
EXTT5=
EXTT6=
EXTT7=
EXTT8=
EXTT9=
EXTT10=
EXTT11=
EXTT12=
EXTT13=
EXTT14=
EXTT15=
EXTT16=
EXTT17=
EXTT18=
EXTT19=
EXTT20=
EXTT21=
EXTT22=
EXTT23=
EXTT24=
EXTT25=
EXTT26=
EXTT27=
EXTT28=
EXTT29=
EXTT30=
EXTT31=
EXTT32=
EXTT33=
EXTT34=
EXTT35=
EXTT36=
EXTT37=
EXTT38=
EXTT39=
EXTT40=
EXTT41=
EXTT42=
EXTT43=
EXTT44=
EXTT45=
EXTT46=
EXTT47=
EXTT48=
EXTT49=
EXTT50=
EXTT51=
EXTT52=
EXTT53=
EXTT54=
EXTT55=
EXTT56=
EXTT57=
EXTT58=
EXTT59=
PLAYORDER=
